<svg width="24" height="17" viewBox="0 0 24 17" fill="none" xmlns="http://www.w3.org/2000/svg">
<g clip-path="url(#clip0_118_187)">
<path d="M1.31739 0H22.6783C23.4043 0 23.9957 0.591304 23.9957 1.31739V15.3739C23.9957 16.1 23.4043 16.6913 22.6783 16.6913H1.31739C0.591304 16.6957 0 16.1043 0 15.3783V1.31739C0 0.591304 0.591304 0 1.31739 0Z" fill="#009B3A"/>
<path d="M1.84351 8.34784L12 14.8305L22.1565 8.34784L12 1.86523L1.84351 8.34784Z" fill="#FEDF00"/>
<path d="M12 4.06543C14.3652 4.06543 16.2826 5.98282 16.2826 8.34804C16.2826 10.7133 14.3652 12.6306 12 12.6306C9.6348 12.6306 7.71741 10.7133 7.71741 8.34804C7.71741 5.98282 9.6348 4.06543 12 4.06543Z" fill="#002776"/>
<path d="M8.08261 6.61753C8.56087 6.54797 9.05217 6.51318 9.55217 6.51318C12.1 6.51318 14.4304 7.43058 16.2391 8.94797C16.2087 9.18275 16.1565 9.40884 16.087 9.62623C14.3565 8.06971 12.0652 7.12188 9.55217 7.12188C8.97391 7.12188 8.40435 7.17405 7.85217 7.26971C7.91304 7.04362 7.9913 6.82623 8.08261 6.61753Z" fill="white"/>
<path fill-rule="evenodd" clip-rule="evenodd" d="M8.33914 7.02179C8.40001 7.0131 8.43914 6.95223 8.43045 6.88266C8.42175 6.8131 8.36523 6.76093 8.30871 6.76962C8.25219 6.77832 8.20871 6.83919 8.21741 6.90875C8.2261 6.97832 8.27828 7.02614 8.33914 7.02179ZM8.34784 7.09571C8.44784 7.08266 8.52175 6.98266 8.50436 6.86962C8.49132 6.75658 8.40001 6.67832 8.29567 6.69136C8.19567 6.7044 8.1261 6.8044 8.13914 6.91745C8.15654 7.02614 8.24784 7.10875 8.34784 7.09571Z" fill="#009B3A"/>
<path fill-rule="evenodd" clip-rule="evenodd" d="M8.7391 6.82588L8.89562 6.81719C8.92606 6.81284 8.9478 6.7911 8.94345 6.76066C8.94345 6.73023 8.91736 6.70849 8.88693 6.71284L8.73041 6.72588L8.7391 6.82588ZM8.67823 7.06066L8.75215 7.05632L8.74345 6.90414L8.90432 6.8911C8.97389 6.88675 9.03041 6.82588 9.02171 6.75632C9.01736 6.68675 8.95649 6.63458 8.88693 6.63892L8.65649 6.65632L8.67823 7.06066Z" fill="#009B3A"/>
<path d="M9.02609 7.03463C9.02174 6.97811 9.01305 6.84768 8.92609 6.85637L8.81305 6.86507C8.93914 6.85637 8.94783 6.98246 8.95653 7.04333L9.02609 7.03463Z" fill="#009B3A"/>
<path fill-rule="evenodd" clip-rule="evenodd" d="M9.26955 6.94806H9.37824C9.43911 6.94806 9.48694 6.89589 9.48694 6.83502V6.80024C9.48694 6.73937 9.43476 6.69154 9.37389 6.69154L9.26085 6.69589L9.26955 6.94806ZM9.19563 7.02632L9.38694 7.02198C9.48259 7.01763 9.56085 6.93937 9.56085 6.84372V6.78719C9.56085 6.69154 9.47824 6.61328 9.38259 6.61328L9.19128 6.61763L9.19563 7.02632Z" fill="#009B3A"/>
<path d="M9.71301 7.02198L10.0826 7.03502V6.96111L9.78693 6.94806L9.79127 6.84372L10.0217 6.85241L10.0261 6.78285L9.79127 6.77415L9.79562 6.69154L10.0739 6.70459L10.0782 6.62632L9.7304 6.61328L9.71301 7.02198Z" fill="#009B3A"/>
<path d="M10.2304 7.04351L10.3 7.0522L10.3261 6.76959L10.3826 7.05655L10.4478 7.06525L10.5521 6.79133L10.5261 7.06959L10.5956 7.07394L10.6348 6.66959L10.5304 6.6609L10.4261 6.93046L10.3695 6.64786L10.2695 6.63916L10.2304 7.04351Z" fill="#009B3A"/>
<path d="M11.0782 7.13919L11.3782 7.19136L11.3913 7.1218L11.1565 7.08267L11.1739 6.99136L11.3609 7.0218L11.3739 6.95658L11.1869 6.9218L11.1956 6.85658L11.4217 6.89571L11.4348 6.82615L11.1391 6.77832L11.0782 7.13919Z" fill="#009B3A"/>
<path fill-rule="evenodd" clip-rule="evenodd" d="M11.9826 7.09111L12.1348 7.13024C12.1609 7.13459 12.1913 7.12155 12.2 7.09111C12.2043 7.06503 12.1913 7.03459 12.1609 7.0259L12.0087 6.98677L11.9826 7.09111ZM11.8522 7.29111L11.9261 7.3085L11.9652 7.16068L12.1217 7.19981C12.1913 7.2172 12.2609 7.17807 12.2783 7.1085C12.2957 7.03894 12.2565 6.96937 12.187 6.95198L11.9609 6.89111L11.8522 7.29111Z" fill="#009B3A"/>
<path fill-rule="evenodd" clip-rule="evenodd" d="M12.4913 7.23037L12.6391 7.27819C12.6652 7.28689 12.6957 7.27384 12.7043 7.24341C12.713 7.21732 12.7 7.18689 12.6696 7.17819L12.5217 7.13037L12.4913 7.23037ZM12.3522 7.42602L12.4261 7.44776L12.4739 7.30428L12.6304 7.35211C12.6957 7.37384 12.7696 7.33471 12.7913 7.2695C12.813 7.20428 12.7739 7.13037 12.7087 7.10863L12.487 7.03906L12.3522 7.42602Z" fill="#009B3A"/>
<path d="M12.6826 7.53063C12.7 7.47411 12.7391 7.35237 12.6565 7.32629L12.5522 7.2915C12.6739 7.33063 12.6348 7.45237 12.6174 7.5089L12.6826 7.53063Z" fill="#009B3A"/>
<path fill-rule="evenodd" clip-rule="evenodd" d="M13.0435 7.57819C13.1 7.59993 13.1652 7.5608 13.187 7.49558C13.2131 7.43036 13.187 7.35645 13.1305 7.33906C13.0739 7.31732 13.0087 7.35645 12.987 7.42167C12.9609 7.48688 12.987 7.55645 13.0435 7.57819ZM13.0174 7.64775C13.1131 7.68254 13.2218 7.62601 13.2609 7.52167C13.3 7.41732 13.2565 7.29993 13.1609 7.26514C13.0652 7.23036 12.9565 7.28688 12.9174 7.39123C12.8783 7.49993 12.9218 7.61297 13.0174 7.64775Z" fill="#009B3A"/>
<path fill-rule="evenodd" clip-rule="evenodd" d="M13.5261 7.77383C13.5826 7.79556 13.6478 7.76513 13.6783 7.69991L13.7478 7.73035C13.7044 7.8347 13.5913 7.88252 13.5 7.84339C13.4044 7.80426 13.3652 7.68687 13.4131 7.58252C13.4565 7.47817 13.5696 7.426 13.6609 7.46948C13.7348 7.49991 13.7739 7.57817 13.7652 7.66078L13.6913 7.626C13.687 7.58687 13.6652 7.55209 13.6304 7.53904C13.5783 7.51296 13.5087 7.54774 13.4826 7.61296C13.4522 7.67817 13.4696 7.74774 13.5261 7.77383Z" fill="#009B3A"/>
<path d="M13.6043 7.66943L13.7478 7.7303L13.7217 7.78248L13.5826 7.72161L13.6043 7.66943Z" fill="#009B3A"/>
<path d="M13.6913 7.70459L13.7478 7.73068L13.6652 7.91763L13.6087 7.89155L13.6913 7.70459Z" fill="#009B3A"/>
<path fill-rule="evenodd" clip-rule="evenodd" d="M13.9696 7.80849L14.1087 7.87806C14.1348 7.8911 14.1652 7.8824 14.1782 7.85632C14.1913 7.83023 14.1826 7.7998 14.1522 7.78675L14.013 7.71719L13.9696 7.80849ZM13.8 7.97806L13.8696 8.01284L13.9348 7.87806L14.0782 7.95197C14.1435 7.98241 14.2174 7.95632 14.2522 7.89545C14.2826 7.83023 14.2565 7.75632 14.1956 7.72154L13.9869 7.61719L13.8 7.97806Z" fill="#009B3A"/>
<path d="M14.113 8.13499C14.1391 8.08281 14.1957 7.96977 14.1174 7.93064L14.0174 7.88281C14.1304 7.93933 14.0739 8.05673 14.0478 8.10455L14.113 8.13499Z" fill="#009B3A"/>
<path d="M14.2652 8.21301L14.5826 8.39562L14.6217 8.33041L14.3608 8.18258L14.413 8.09127L14.6174 8.20432L14.6478 8.14345L14.4478 8.0304L14.4869 7.96084L14.7304 8.09562L14.7695 8.0304L14.4652 7.86084L14.2652 8.21301Z" fill="#009B3A"/>
<path d="M14.8608 8.41319C14.8391 8.44797 14.8608 8.4871 14.9087 8.51754C14.9565 8.54797 14.9913 8.54797 15.0043 8.52623C15.0478 8.45667 14.7913 8.35232 14.8695 8.23058C14.9391 8.12623 15.0565 8.20884 15.1 8.23493C15.1435 8.26101 15.213 8.33493 15.1608 8.41754L15.0869 8.36971C15.1087 8.33058 15.0826 8.2958 15.0435 8.27406C15.0043 8.25232 14.9739 8.23927 14.9522 8.27406C14.913 8.33058 15.1652 8.43927 15.0913 8.56101C15.0348 8.65232 14.9348 8.61319 14.8652 8.56971C14.8087 8.53493 14.7261 8.44797 14.7782 8.36101L14.8608 8.41319Z" fill="#009B3A"/>
<path d="M15.2956 8.70445C15.2739 8.73923 15.2913 8.77836 15.3391 8.80879C15.3869 8.84358 15.4217 8.84358 15.4348 8.82184C15.4826 8.75227 15.2304 8.63923 15.3174 8.52184C15.3913 8.42184 15.5043 8.50879 15.5478 8.53923C15.5913 8.56966 15.6565 8.64793 15.6 8.72619L15.5261 8.67401C15.5522 8.63923 15.5261 8.60445 15.4913 8.57401C15.4565 8.54792 15.4261 8.53488 15.4 8.56966C15.3565 8.62184 15.6043 8.74358 15.5217 8.86097C15.4609 8.94792 15.3609 8.90445 15.3 8.85662C15.2435 8.81749 15.1652 8.72619 15.2261 8.64358L15.2956 8.70445Z" fill="#009B3A"/>
<path fill-rule="evenodd" clip-rule="evenodd" d="M15.7566 9.1128C15.8044 9.14758 15.8783 9.13454 15.9218 9.07802C15.9652 9.0215 15.9652 8.94758 15.9174 8.9128C15.8739 8.87367 15.7957 8.89106 15.7566 8.94758C15.7087 8.99976 15.7087 9.07802 15.7566 9.1128ZM15.7087 9.17367C15.787 9.23889 15.9087 9.21715 15.9783 9.13019C16.0479 9.04324 16.0392 8.9215 15.9609 8.85628C15.8826 8.79106 15.7609 8.8128 15.6913 8.89976C15.6218 8.98671 15.6305 9.10845 15.7087 9.17367Z" fill="#009B3A"/>
<path d="M8.50434 7.39551L8.44781 7.56942L8.53477 7.59986L8.50434 7.39551Z" fill="white"/>
<path d="M8.50437 7.39551L8.56089 7.56942L8.47394 7.59986L8.50437 7.39551Z" fill="white"/>
<path d="M8.67827 7.52197H8.49567V7.61328L8.67827 7.52197Z" fill="white"/>
<path d="M8.67829 7.52197L8.53046 7.63067L8.47394 7.55676L8.67829 7.52197Z" fill="white"/>
<path d="M8.33044 7.52197L8.47827 7.63067L8.53044 7.55676L8.33044 7.52197Z" fill="white"/>
<path d="M8.33044 7.52197H8.51305V7.61328L8.33044 7.52197Z" fill="white"/>
<path d="M8.61302 7.72616L8.5565 7.55225L8.46954 7.58268L8.61302 7.72616Z" fill="white"/>
<path d="M8.61304 7.72607L8.46521 7.62172L8.51738 7.54346L8.61304 7.72607Z" fill="white"/>
<path d="M8.39563 7.72607L8.54346 7.62172L8.49128 7.54346L8.39563 7.72607Z" fill="white"/>
<path d="M8.39563 7.72616L8.45215 7.55225L8.53911 7.58268L8.39563 7.72616Z" fill="white"/>
<path d="M8.88263 9.1958L8.82611 9.36971L8.91307 9.40015L8.88263 9.1958Z" fill="white"/>
<path d="M8.88261 9.1958L8.93913 9.36971L8.85217 9.40015L8.88261 9.1958Z" fill="white"/>
<path d="M9.05651 9.32178H8.8739V9.41308L9.05651 9.32178Z" fill="white"/>
<path d="M9.05651 9.32178L8.90868 9.43047L8.85651 9.35656L9.05651 9.32178Z" fill="white"/>
<path d="M8.70868 9.32178L8.85651 9.43047L8.91303 9.35656L8.70868 9.32178Z" fill="white"/>
<path d="M8.70868 9.32178H8.89129V9.41308L8.70868 9.32178Z" fill="white"/>
<path d="M8.99132 9.52596L8.9348 9.35205L8.84784 9.38249L8.99132 9.52596Z" fill="white"/>
<path d="M8.99133 9.52587L8.84351 9.42152L8.89568 9.34326L8.99133 9.52587Z" fill="white"/>
<path d="M8.77393 9.52587L8.92175 9.42152L8.86958 9.34326L8.77393 9.52587Z" fill="white"/>
<path d="M8.77393 9.52596L8.83045 9.35205L8.9174 9.38249L8.77393 9.52596Z" fill="white"/>
<path d="M8.35653 9.61328L8.31305 9.75676L8.38261 9.7785L8.35653 9.61328Z" fill="white"/>
<path d="M8.35652 9.61328L8.40434 9.75676L8.33478 9.7785L8.35652 9.61328Z" fill="white"/>
<path d="M8.50435 9.71729H8.35217V9.7912L8.50435 9.71729Z" fill="white"/>
<path d="M8.50434 9.71729L8.37826 9.80424L8.33478 9.74337L8.50434 9.71729Z" fill="white"/>
<path d="M8.21301 9.71729L8.3391 9.80424L8.38258 9.74337L8.21301 9.71729Z" fill="white"/>
<path d="M8.21301 9.71729H8.36519V9.7912L8.21301 9.71729Z" fill="white"/>
<path d="M8.44785 9.88708L8.40002 9.73926L8.32611 9.76534L8.44785 9.88708Z" fill="white"/>
<path d="M8.44785 9.88704L8.32611 9.79573L8.36959 9.73486L8.44785 9.88704Z" fill="white"/>
<path d="M8.26959 9.88704L8.39133 9.79573L8.34785 9.73486L8.26959 9.88704Z" fill="white"/>
<path d="M8.26959 9.88708L8.31742 9.73926L8.38698 9.76534L8.26959 9.88708Z" fill="white"/>
<path d="M9.30436 9.03027L9.27393 9.11288L9.3174 9.12593L9.30436 9.03027Z" fill="white"/>
<path d="M9.30438 9.03027L9.33046 9.11288L9.28699 9.12593L9.30438 9.03027Z" fill="white"/>
<path d="M9.38694 9.09131H9.29999V9.13479L9.38694 9.09131Z" fill="white"/>
<path d="M9.38697 9.09131L9.31306 9.14348L9.29132 9.1087L9.38697 9.09131Z" fill="white"/>
<path d="M9.21741 9.09131L9.29132 9.14348L9.31741 9.1087L9.21741 9.09131Z" fill="white"/>
<path d="M9.21741 9.09131H9.30871V9.13479L9.21741 9.09131Z" fill="white"/>
<path d="M9.3522 9.1871L9.32612 9.10449L9.28699 9.11754L9.3522 9.1871Z" fill="white"/>
<path d="M9.35216 9.18705L9.28259 9.13488L9.30868 9.1001L9.35216 9.18705Z" fill="white"/>
<path d="M9.2522 9.18705L9.32176 9.13488L9.29567 9.1001L9.2522 9.18705Z" fill="white"/>
<path d="M9.2522 9.1871L9.27828 9.10449L9.31741 9.11754L9.2522 9.1871Z" fill="white"/>
<path d="M9.7739 9.65234L9.72607 9.79582L9.79999 9.82191L9.7739 9.65234Z" fill="white"/>
<path d="M9.77389 9.65234L9.82172 9.79582L9.7478 9.82191L9.77389 9.65234Z" fill="white"/>
<path d="M9.92172 9.75635H9.7652V9.83461L9.92172 9.75635Z" fill="white"/>
<path d="M9.92176 9.75635L9.79568 9.84765L9.7522 9.78678L9.92176 9.75635Z" fill="white"/>
<path d="M9.63043 9.75635L9.75217 9.84765L9.79565 9.78678L9.63043 9.75635Z" fill="white"/>
<path d="M9.63043 9.75635H9.78261V9.83461L9.63043 9.75635Z" fill="white"/>
<path d="M9.86521 9.93054L9.81738 9.78271L9.74347 9.80445L9.86521 9.93054Z" fill="white"/>
<path d="M9.86522 9.93049L9.73914 9.83919L9.78696 9.77832L9.86522 9.93049Z" fill="white"/>
<path d="M9.68695 9.93049L9.80869 9.83919L9.76521 9.77832L9.68695 9.93049Z" fill="white"/>
<path d="M9.68695 9.93054L9.73043 9.78271L9.80434 9.80445L9.68695 9.93054Z" fill="white"/>
<path d="M9.64783 10.1089L9.6087 10.2263L9.66522 10.2437L9.64783 10.1089Z" fill="white"/>
<path d="M9.64784 10.1089L9.68262 10.2263L9.6261 10.2437L9.64784 10.1089Z" fill="white"/>
<path d="M9.7609 10.1914H9.63916V10.2523L9.7609 10.1914Z" fill="white"/>
<path d="M9.76088 10.1914L9.66523 10.2653L9.6261 10.2131L9.76088 10.1914Z" fill="white"/>
<path d="M9.53046 10.1914L9.63046 10.2653L9.66524 10.2131L9.53046 10.1914Z" fill="white"/>
<path d="M9.53046 10.1914H9.6522V10.2523L9.53046 10.1914Z" fill="white"/>
<path d="M9.71742 10.3303L9.67829 10.2129L9.62177 10.2303L9.71742 10.3303Z" fill="white"/>
<path d="M9.71737 10.3302L9.61737 10.2563L9.6565 10.2085L9.71737 10.3302Z" fill="white"/>
<path d="M9.57391 10.3302L9.67391 10.2563L9.63478 10.2085L9.57391 10.3302Z" fill="white"/>
<path d="M9.57391 10.3303L9.61304 10.2129L9.66957 10.2303L9.57391 10.3303Z" fill="white"/>
<path d="M13.3304 6.83496L13.2739 7.00887L13.3609 7.03931L13.3304 6.83496Z" fill="white"/>
<path d="M13.3304 6.83496L13.3826 7.00887L13.2957 7.03931L13.3304 6.83496Z" fill="white"/>
<path d="M13.5043 6.96533H13.3174V7.05664L13.5043 6.96533Z" fill="white"/>
<path d="M13.5043 6.96533L13.3522 7.06968L13.3 6.99577L13.5043 6.96533Z" fill="white"/>
<path d="M13.1522 6.96533L13.3043 7.06968L13.3565 6.99577L13.1522 6.96533Z" fill="white"/>
<path d="M13.1522 6.96533H13.3391V7.05664L13.1522 6.96533Z" fill="white"/>
<path d="M13.4348 7.16952L13.3783 6.99561L13.2913 7.02169L13.4348 7.16952Z" fill="white"/>
<path d="M13.4348 7.16943L13.2869 7.06073L13.3434 6.98682L13.4348 7.16943Z" fill="white"/>
<path d="M13.2217 7.16943L13.3696 7.06073L13.313 6.98682L13.2217 7.16943Z" fill="white"/>
<path d="M13.2217 7.16952L13.2783 6.99561L13.3652 7.02169L13.2217 7.16952Z" fill="white"/>
<path d="M15 9.66943L14.9435 9.84335L15.0304 9.86943L15 9.66943Z" fill="white"/>
<path d="M15 9.66943L15.0565 9.84335L14.9695 9.86943L15 9.66943Z" fill="white"/>
<path d="M15.1739 9.79541H14.9913V9.88671L15.1739 9.79541Z" fill="white"/>
<path d="M15.1739 9.79541L15.0261 9.89976L14.9739 9.83019L15.1739 9.79541Z" fill="white"/>
<path d="M14.8261 9.79541L14.9739 9.89976L15.0261 9.83019L14.8261 9.79541Z" fill="white"/>
<path d="M14.8261 9.79541H15.0087V9.88671L14.8261 9.79541Z" fill="white"/>
<path d="M15.1087 10.0001L15.0522 9.82617L14.9652 9.85226L15.1087 10.0001Z" fill="white"/>
<path d="M15.1087 9.99999L14.9609 9.8913L15.013 9.81738L15.1087 9.99999Z" fill="white"/>
<path d="M14.8913 9.99999L15.0391 9.8913L14.9869 9.81738L14.8913 9.99999Z" fill="white"/>
<path d="M14.8913 10.0001L14.9478 9.82617L15.0348 9.85226L14.8913 10.0001Z" fill="white"/>
<path d="M15.5956 9.76953L15.5565 9.88692L15.613 9.90431L15.5956 9.76953Z" fill="white"/>
<path d="M15.5957 9.76953L15.6304 9.88692L15.5739 9.90431L15.5957 9.76953Z" fill="white"/>
<path d="M15.7087 9.85205H15.587V9.91292L15.7087 9.85205Z" fill="white"/>
<path d="M15.7087 9.85205L15.613 9.92596L15.5739 9.87814L15.7087 9.85205Z" fill="white"/>
<path d="M15.4783 9.85205L15.5783 9.92596L15.6131 9.87814L15.4783 9.85205Z" fill="white"/>
<path d="M15.4783 9.85205H15.6V9.91292L15.4783 9.85205Z" fill="white"/>
<path d="M15.6652 9.99141L15.6304 9.87402L15.5696 9.89142L15.6652 9.99141Z" fill="white"/>
<path d="M15.6652 9.99137L15.5696 9.91745L15.6044 9.86963L15.6652 9.99137Z" fill="white"/>
<path d="M15.5217 9.99137L15.6217 9.91745L15.5869 9.86963L15.5217 9.99137Z" fill="white"/>
<path d="M15.5217 9.99141L15.5609 9.87402L15.6174 9.89142L15.5217 9.99141Z" fill="white"/>
<path d="M15.1739 10.0781L15.1261 10.2216L15.2 10.2477L15.1739 10.0781Z" fill="white"/>
<path d="M15.1739 10.0781L15.2217 10.2216L15.1478 10.2477L15.1739 10.0781Z" fill="white"/>
<path d="M15.3217 10.1826H15.1652V10.2565L15.3217 10.1826Z" fill="white"/>
<path d="M15.3217 10.1826L15.1956 10.2739L15.1522 10.2087L15.3217 10.1826Z" fill="white"/>
<path d="M15.0305 10.1826L15.1522 10.2739L15.2 10.2087L15.0305 10.1826Z" fill="white"/>
<path d="M15.0305 10.1826H15.1826V10.2565L15.0305 10.1826Z" fill="white"/>
<path d="M15.2652 10.352L15.2174 10.2085L15.1435 10.2302L15.2652 10.352Z" fill="white"/>
<path d="M15.2652 10.3524L15.1435 10.2654L15.187 10.2002L15.2652 10.3524Z" fill="white"/>
<path d="M15.087 10.3524L15.2087 10.2654L15.1652 10.2002L15.087 10.3524Z" fill="white"/>
<path d="M15.087 10.352L15.1348 10.2085L15.2044 10.2302L15.087 10.352Z" fill="white"/>
<path d="M14.1435 10.9741L14.0956 11.1176L14.1696 11.1437L14.1435 10.9741Z" fill="white"/>
<path d="M14.1435 10.9741L14.1913 11.1176L14.1174 11.1437L14.1435 10.9741Z" fill="white"/>
<path d="M14.2913 11.0781H14.1348V11.1564L14.2913 11.0781Z" fill="white"/>
<path d="M14.2913 11.0781L14.1652 11.1694L14.1218 11.1086L14.2913 11.0781Z" fill="white"/>
<path d="M14 11.0781L14.1217 11.1694L14.1652 11.1086L14 11.0781Z" fill="white"/>
<path d="M14 11.0781H14.1522V11.1564L14 11.0781Z" fill="white"/>
<path d="M14.2348 11.2523L14.187 11.1045L14.113 11.1306L14.2348 11.2523Z" fill="white"/>
<path d="M14.2348 11.2523L14.1087 11.161L14.1565 11.1001L14.2348 11.2523Z" fill="white"/>
<path d="M14.0565 11.2523L14.1783 11.161L14.1348 11.1001L14.0565 11.2523Z" fill="white"/>
<path d="M14.0565 11.2523L14.1 11.1045L14.1739 11.1306L14.0565 11.2523Z" fill="white"/>
<path d="M14.1391 11.4346L14.1 11.552L14.1565 11.5694L14.1391 11.4346Z" fill="white"/>
<path d="M14.1391 11.4346L14.1739 11.552L14.1174 11.5694L14.1391 11.4346Z" fill="white"/>
<path d="M14.2522 11.522H14.1304V11.5828L14.2522 11.522Z" fill="white"/>
<path d="M14.2522 11.522L14.1565 11.5915L14.1174 11.5437L14.2522 11.522Z" fill="white"/>
<path d="M14.0217 11.522L14.1217 11.5915L14.1565 11.5437L14.0217 11.522Z" fill="white"/>
<path d="M14.0217 11.522H14.1435V11.5828L14.0217 11.522Z" fill="white"/>
<path d="M14.2087 11.6565L14.1739 11.5391L14.113 11.5608L14.2087 11.6565Z" fill="white"/>
<path d="M14.2087 11.6564L14.113 11.5868L14.1478 11.5347L14.2087 11.6564Z" fill="white"/>
<path d="M14.0652 11.6564L14.1652 11.5868L14.1304 11.5347L14.0652 11.6564Z" fill="white"/>
<path d="M14.0652 11.6565L14.1043 11.5391L14.1608 11.5608L14.0652 11.6565Z" fill="white"/>
<path d="M14.5696 10.665L14.5305 10.7824L14.5913 10.8042L14.5696 10.665Z" fill="white"/>
<path d="M14.5696 10.665L14.6087 10.7824L14.5479 10.8042L14.5696 10.665Z" fill="white"/>
<path d="M14.6869 10.752H14.5609V10.8128L14.6869 10.752Z" fill="white"/>
<path d="M14.687 10.752L14.587 10.8215L14.5522 10.7737L14.687 10.752Z" fill="white"/>
<path d="M14.4521 10.752L14.5521 10.8215L14.5869 10.7737L14.4521 10.752Z" fill="white"/>
<path d="M14.4521 10.752H14.5739V10.8128L14.4521 10.752Z" fill="white"/>
<path d="M14.6391 10.8869L14.6043 10.7695L14.5435 10.7913L14.6391 10.8869Z" fill="white"/>
<path d="M14.6391 10.8869L14.5435 10.8173L14.5782 10.7651L14.6391 10.8869Z" fill="white"/>
<path d="M14.4957 10.8869L14.5957 10.8173L14.5609 10.7651L14.4957 10.8869Z" fill="white"/>
<path d="M14.4957 10.8869L14.5348 10.7695L14.5913 10.7913L14.4957 10.8869Z" fill="white"/>
<path d="M14.9131 10.4219L14.8652 10.5654L14.9391 10.5914L14.9131 10.4219Z" fill="white"/>
<path d="M14.913 10.4219L14.9609 10.5654L14.887 10.5914L14.913 10.4219Z" fill="white"/>
<path d="M15.0565 10.5259H14.9044V10.6041L15.0565 10.5259Z" fill="white"/>
<path d="M15.0565 10.5259L14.9348 10.6172L14.8913 10.5563L15.0565 10.5259Z" fill="white"/>
<path d="M14.7696 10.5259L14.8913 10.6172L14.9348 10.5563L14.7696 10.5259Z" fill="white"/>
<path d="M14.7696 10.5259H14.9218V10.6041L14.7696 10.5259Z" fill="white"/>
<path d="M15.0044 10.6957L14.9565 10.5522L14.8826 10.574L15.0044 10.6957Z" fill="white"/>
<path d="M15.0043 10.6956L14.8782 10.6087L14.9261 10.5435L15.0043 10.6956Z" fill="white"/>
<path d="M14.8217 10.6956L14.9478 10.6087L14.9 10.5435L14.8217 10.6956Z" fill="white"/>
<path d="M14.8217 10.6957L14.8695 10.5522L14.9435 10.574L14.8217 10.6957Z" fill="white"/>
<path d="M14.1261 10.5825L14.087 10.6999L14.1478 10.7216L14.1261 10.5825Z" fill="white"/>
<path d="M14.1261 10.5825L14.1652 10.6999L14.1044 10.7216L14.1261 10.5825Z" fill="white"/>
<path d="M14.2435 10.6694H14.1218V10.7303L14.2435 10.6694Z" fill="white"/>
<path d="M14.2435 10.6694L14.1435 10.7433L14.1087 10.6912L14.2435 10.6694Z" fill="white"/>
<path d="M14.0087 10.6694L14.1087 10.7433L14.1434 10.6912L14.0087 10.6694Z" fill="white"/>
<path d="M14.0087 10.6694H14.1348V10.7303L14.0087 10.6694Z" fill="white"/>
<path d="M14.2 10.8044L14.1609 10.6914L14.1044 10.7088L14.2 10.8044Z" fill="white"/>
<path d="M14.2 10.8044L14.1 10.7348L14.1348 10.687L14.2 10.8044Z" fill="white"/>
<path d="M14.0565 10.8044L14.1522 10.7348L14.1174 10.687L14.0565 10.8044Z" fill="white"/>
<path d="M14.0565 10.8044L14.0913 10.6914L14.1522 10.7088L14.0565 10.8044Z" fill="white"/>
<path d="M10.3695 8.36963L10.3217 8.51311L10.3956 8.53919L10.3695 8.36963Z" fill="white"/>
<path d="M10.3696 8.36963L10.4174 8.51311L10.3435 8.53919L10.3696 8.36963Z" fill="white"/>
<path d="M10.513 8.47412H10.3608V8.55238L10.513 8.47412Z" fill="white"/>
<path d="M10.5131 8.47412L10.3913 8.56543L10.3435 8.50456L10.5131 8.47412Z" fill="white"/>
<path d="M10.2217 8.47412L10.3478 8.56543L10.3913 8.50456L10.2217 8.47412Z" fill="white"/>
<path d="M10.2217 8.47412H10.3783V8.55238L10.2217 8.47412Z" fill="white"/>
<path d="M10.4565 8.64783L10.413 8.5L10.3391 8.52609L10.4565 8.64783Z" fill="white"/>
<path d="M10.4565 8.64778L10.3348 8.55647L10.3783 8.49561L10.4565 8.64778Z" fill="white"/>
<path d="M10.2783 8.64778L10.4043 8.55647L10.3565 8.49561L10.2783 8.64778Z" fill="white"/>
<path d="M10.2783 8.64783L10.3261 8.5L10.4 8.52609L10.2783 8.64783Z" fill="white"/>
<path d="M13.1652 8.00879L13.1261 8.12618L13.187 8.14357L13.1652 8.00879Z" fill="white"/>
<path d="M13.1652 8.00879L13.2044 8.12618L13.1435 8.14357L13.1652 8.00879Z" fill="white"/>
<path d="M13.2826 8.0957H13.1609V8.15657L13.2826 8.0957Z" fill="white"/>
<path d="M13.2826 8.0957L13.1826 8.16527L13.1478 8.11744L13.2826 8.0957Z" fill="white"/>
<path d="M13.0479 8.0957L13.1479 8.16527L13.1826 8.11744L13.0479 8.0957Z" fill="white"/>
<path d="M13.0479 8.0957H13.1696V8.15657L13.0479 8.0957Z" fill="white"/>
<path d="M13.2348 8.23023L13.2 8.11719L13.1435 8.13458L13.2348 8.23023Z" fill="white"/>
<path d="M13.2348 8.23063L13.1392 8.16106L13.1739 8.10889L13.2348 8.23063Z" fill="white"/>
<path d="M13.0956 8.23063L13.1913 8.16106L13.1565 8.10889L13.0956 8.23063Z" fill="white"/>
<path d="M13.0956 8.23023L13.1304 8.11719L13.1913 8.13458L13.0956 8.23023Z" fill="white"/>
<path d="M12 10.0869L11.9435 10.2608L12.0304 10.2913L12 10.0869Z" fill="white"/>
<path d="M12 10.0869L12.0565 10.2608L11.9695 10.2913L12 10.0869Z" fill="white"/>
<path d="M12.1739 10.2129H11.9913V10.3042L12.1739 10.2129Z" fill="white"/>
<path d="M12.1739 10.2129L12.0261 10.3216L11.9739 10.2477L12.1739 10.2129Z" fill="white"/>
<path d="M11.8261 10.2129L11.9739 10.3216L12.0261 10.2477L11.8261 10.2129Z" fill="white"/>
<path d="M11.8261 10.2129H12.0087V10.3042L11.8261 10.2129Z" fill="white"/>
<path d="M12.1087 10.4176L12.0522 10.2437L11.9652 10.2741L12.1087 10.4176Z" fill="white"/>
<path d="M12.1087 10.4175L11.9609 10.3131L12.013 10.2349L12.1087 10.4175Z" fill="white"/>
<path d="M11.8913 10.4175L12.0391 10.3131L11.9869 10.2349L11.8913 10.4175Z" fill="white"/>
<path d="M11.8913 10.4176L11.9478 10.2437L12.0348 10.2741L11.8913 10.4176Z" fill="white"/>
<path d="M12.4956 9.26514L12.4478 9.41296L12.5217 9.4347L12.4956 9.26514Z" fill="white"/>
<path d="M12.4956 9.26514L12.5435 9.41296L12.4695 9.4347L12.4956 9.26514Z" fill="white"/>
<path d="M12.6391 9.37402H12.4869V9.44794L12.6391 9.37402Z" fill="white"/>
<path d="M12.6391 9.37402L12.5174 9.46098L12.4695 9.40011L12.6391 9.37402Z" fill="white"/>
<path d="M12.3522 9.37402L12.4739 9.46098L12.5174 9.40011L12.3522 9.37402Z" fill="white"/>
<path d="M12.3522 9.37402H12.5043V9.44794L12.3522 9.37402Z" fill="white"/>
<path d="M12.5869 9.54338L12.5391 9.3999L12.4652 9.42164L12.5869 9.54338Z" fill="white"/>
<path d="M12.587 9.54329L12.4609 9.45198L12.5044 9.39111L12.587 9.54329Z" fill="white"/>
<path d="M12.4044 9.54329L12.5304 9.45198L12.4826 9.39111L12.4044 9.54329Z" fill="white"/>
<path d="M12.4044 9.54338L12.4522 9.3999L12.5261 9.42164L12.4044 9.54338Z" fill="white"/>
<path d="M12 8.88281L11.9521 9.02629L12.0261 9.05238L12 8.88281Z" fill="white"/>
<path d="M12 8.88281L12.0479 9.02629L11.9739 9.05238L12 8.88281Z" fill="white"/>
<path d="M12.1435 8.98682H11.9913V9.06508L12.1435 8.98682Z" fill="white"/>
<path d="M12.1435 8.98682L12.0217 9.07812L11.9783 9.01725L12.1435 8.98682Z" fill="white"/>
<path d="M11.8565 8.98682L11.9782 9.07812L12.0217 9.01725L11.8565 8.98682Z" fill="white"/>
<path d="M11.8565 8.98682H12.0087V9.06508L11.8565 8.98682Z" fill="white"/>
<path d="M12.0913 9.16101L12.0435 9.01318L11.9695 9.03927L12.0913 9.16101Z" fill="white"/>
<path d="M12.0913 9.16096L11.9652 9.06966L12.013 9.00879L12.0913 9.16096Z" fill="white"/>
<path d="M11.9087 9.16096L12.0348 9.06966L11.987 9.00879L11.9087 9.16096Z" fill="white"/>
<path d="M11.9087 9.16101L11.9565 9.01318L12.0304 9.03927L11.9087 9.16101Z" fill="white"/>
<path d="M11.5696 9.29541L11.5305 9.4128L11.5913 9.43454L11.5696 9.29541Z" fill="white"/>
<path d="M11.5696 9.29541L11.6087 9.4128L11.5479 9.43454L11.5696 9.29541Z" fill="white"/>
<path d="M11.6869 9.38281H11.5609V9.44368L11.6869 9.38281Z" fill="white"/>
<path d="M11.687 9.38281L11.587 9.45238L11.5479 9.40455L11.687 9.38281Z" fill="white"/>
<path d="M11.4521 9.38281L11.5521 9.45238L11.5869 9.40455L11.4521 9.38281Z" fill="white"/>
<path d="M11.4521 9.38281H11.5739V9.44368L11.4521 9.38281Z" fill="white"/>
<path d="M11.6391 9.51734L11.6043 9.4043L11.5435 9.42169L11.6391 9.51734Z" fill="white"/>
<path d="M11.6391 9.51725L11.5435 9.44768L11.5782 9.39551L11.6391 9.51725Z" fill="white"/>
<path d="M11.4957 9.51725L11.5957 9.44768L11.5609 9.39551L11.4957 9.51725Z" fill="white"/>
<path d="M11.4957 9.51734L11.5348 9.4043L11.5913 9.42169L11.4957 9.51734Z" fill="white"/>
<path d="M11.7826 9.63037L11.7565 9.71298L11.8 9.72602L11.7826 9.63037Z" fill="white"/>
<path d="M11.7826 9.63037L11.8131 9.71298L11.7696 9.72602L11.7826 9.63037Z" fill="white"/>
<path d="M11.8652 9.69141H11.7783V9.73488L11.8652 9.69141Z" fill="white"/>
<path d="M11.8652 9.69141L11.7957 9.73923L11.7696 9.70445L11.8652 9.69141Z" fill="white"/>
<path d="M11.7 9.69141L11.7739 9.73923L11.7957 9.70445L11.7 9.69141Z" fill="white"/>
<path d="M11.7 9.69141H11.787V9.73488L11.7 9.69141Z" fill="white"/>
<path d="M11.8348 9.7872L11.8087 9.70459L11.7652 9.71763L11.8348 9.7872Z" fill="white"/>
<path d="M11.8348 9.78715L11.7652 9.73498L11.7913 9.7002L11.8348 9.78715Z" fill="white"/>
<path d="M11.7348 9.78715L11.8044 9.73498L11.7783 9.7002L11.7348 9.78715Z" fill="white"/>
<path d="M11.7348 9.7872L11.7609 9.70459L11.8 9.71763L11.7348 9.7872Z" fill="white"/>
<path d="M13.2826 11.0781L13.2348 11.226L13.3087 11.2477L13.2826 11.0781Z" fill="white"/>
<path d="M13.2826 11.0781L13.3304 11.226L13.2565 11.2477L13.2826 11.0781Z" fill="white"/>
<path d="M13.4261 11.1826H13.2739V11.2609L13.4261 11.1826Z" fill="white"/>
<path d="M13.4261 11.1826L13.3044 11.2739L13.2565 11.2131L13.4261 11.1826Z" fill="white"/>
<path d="M13.1348 11.1826L13.2609 11.2739L13.3043 11.2131L13.1348 11.1826Z" fill="white"/>
<path d="M13.1348 11.1826H13.2913V11.2609L13.1348 11.1826Z" fill="white"/>
<path d="M13.3696 11.3563L13.3261 11.2085L13.2522 11.2346L13.3696 11.3563Z" fill="white"/>
<path d="M13.3695 11.3568L13.2478 11.2655L13.2913 11.2046L13.3695 11.3568Z" fill="white"/>
<path d="M13.1913 11.3568L13.3174 11.2655L13.2695 11.2046L13.1913 11.3568Z" fill="white"/>
<path d="M13.1913 11.3563L13.2391 11.2085L13.313 11.2346L13.1913 11.3563Z" fill="white"/>
<path d="M13.6478 10.7305L13.6087 10.8479L13.6696 10.8653L13.6478 10.7305Z" fill="white"/>
<path d="M13.6478 10.7305L13.687 10.8479L13.6304 10.8653L13.6478 10.7305Z" fill="white"/>
<path d="M13.7652 10.813H13.6435V10.8782L13.7652 10.813Z" fill="white"/>
<path d="M13.7652 10.813L13.6652 10.8869L13.6304 10.8391L13.7652 10.813Z" fill="white"/>
<path d="M13.5305 10.813L13.6305 10.8869L13.6696 10.8391L13.5305 10.813Z" fill="white"/>
<path d="M13.5305 10.813H13.6565V10.8782L13.5305 10.813Z" fill="white"/>
<path d="M13.7218 10.9524L13.6826 10.835L13.6261 10.8567L13.7218 10.9524Z" fill="white"/>
<path d="M13.7218 10.9523L13.6218 10.8827L13.6565 10.8306L13.7218 10.9523Z" fill="white"/>
<path d="M13.5782 10.9523L13.6739 10.8827L13.6391 10.8306L13.5782 10.9523Z" fill="white"/>
<path d="M13.5782 10.9524L13.613 10.835L13.6739 10.8567L13.5782 10.9524Z" fill="white"/>
<path d="M12.9435 10.626L12.9044 10.7434L12.9652 10.7608L12.9435 10.626Z" fill="white"/>
<path d="M12.9435 10.626L12.9826 10.7434L12.9218 10.7608L12.9435 10.626Z" fill="white"/>
<path d="M13.0609 10.7129H12.9391V10.7694L13.0609 10.7129Z" fill="white"/>
<path d="M13.0609 10.7129L12.9609 10.7825L12.9261 10.7303L13.0609 10.7129Z" fill="white"/>
<path d="M12.8261 10.7129L12.9261 10.7825L12.9609 10.7303L12.8261 10.7129Z" fill="white"/>
<path d="M12.8261 10.7129H12.9479V10.7694L12.8261 10.7129Z" fill="white"/>
<path d="M13.0131 10.8479L12.9783 10.7305L12.9174 10.7522L13.0131 10.8479Z" fill="white"/>
<path d="M13.0131 10.8478L12.9174 10.7739L12.9522 10.7261L13.0131 10.8478Z" fill="white"/>
<path d="M12.8739 10.8478L12.9696 10.7739L12.9348 10.7261L12.8739 10.8478Z" fill="white"/>
<path d="M12.8739 10.8479L12.9087 10.7305L12.9652 10.7522L12.8739 10.8479Z" fill="white"/>
<path d="M10.2826 10.4346L10.2261 10.6128L10.313 10.6389L10.2826 10.4346Z" fill="white"/>
<path d="M10.2826 10.4346L10.3392 10.6128L10.2522 10.6389L10.2826 10.4346Z" fill="white"/>
<path d="M10.4565 10.5654H10.2739V10.6567L10.4565 10.5654Z" fill="white"/>
<path d="M10.4565 10.5654L10.3087 10.6698L10.2522 10.5959L10.4565 10.5654Z" fill="white"/>
<path d="M10.1087 10.5654L10.2565 10.6698L10.3087 10.5959L10.1087 10.5654Z" fill="white"/>
<path d="M10.1087 10.5654H10.2913V10.6567L10.1087 10.5654Z" fill="white"/>
<path d="M10.3913 10.7696L10.3304 10.5913L10.2435 10.6217L10.3913 10.7696Z" fill="white"/>
<path d="M10.3913 10.7695L10.2391 10.6608L10.2957 10.5869L10.3913 10.7695Z" fill="white"/>
<path d="M10.1739 10.7695L10.3217 10.6608L10.2695 10.5869L10.1739 10.7695Z" fill="white"/>
<path d="M10.1739 10.7696L10.2304 10.5913L10.3174 10.6217L10.1739 10.7696Z" fill="white"/>
<path d="M12 11.6348L11.9826 11.6956L12.0087 11.7043L12 11.6348Z" fill="white"/>
<path d="M12 11.6348L12.0174 11.6956L11.9913 11.7043L12 11.6348Z" fill="white"/>
<path d="M12.0565 11.6782H11.9957V11.7087L12.0565 11.6782Z" fill="white"/>
<path d="M12.0566 11.6782L12.0087 11.713L11.9913 11.6913L12.0566 11.6782Z" fill="white"/>
<path d="M11.9435 11.6782L11.9913 11.713L12.0087 11.6913L11.9435 11.6782Z" fill="white"/>
<path d="M11.9435 11.6782H12.0044V11.7087L11.9435 11.6782Z" fill="white"/>
<path d="M12.0348 11.7479L12.0174 11.6914L11.9869 11.7001L12.0348 11.7479Z" fill="white"/>
<path d="M12.0348 11.7479L11.9869 11.7131L12.0043 11.687L12.0348 11.7479Z" fill="white"/>
<path d="M11.9652 11.7479L12.013 11.7131L11.9956 11.687L11.9652 11.7479Z" fill="white"/>
<path d="M11.9652 11.7479L11.9826 11.6914L12.013 11.7001L11.9652 11.7479Z" fill="white"/>
</g>
<defs>
<clipPath id="clip0_118_187">
<rect width="24" height="16.6957" fill="white"/>
</clipPath>
</defs>
</svg>
