<svg width="24" height="17" viewBox="0 0 24 17" fill="none" xmlns="http://www.w3.org/2000/svg">
<g clip-path="url(#clip0_118_166)">
<path d="M1.24783 16.6957H22.7522C23.4435 16.6565 24 16.0783 24 15.3783V1.31739C24 0.595652 23.413 0.00434783 22.6913 0H1.3087C0.586957 0.00434783 0 0.595652 0 1.31739V15.3739C0 16.0783 0.556522 16.6565 1.24783 16.6957Z" fill="#FEFEFE"/>
<path d="M10.3217 10.013V16.6957H13.6609V10.013H24V6.67391H13.6609V0H10.3217V6.67391H0V10.013H10.3217Z" fill="#C8102E"/>
<path d="M14.7739 5.40435V0H22.7C23.2478 0.00869565 23.7174 0.352174 23.9087 0.834783L14.7739 5.40435Z" fill="#012169"/>
<path d="M14.7739 11.2915V16.6959H22.7522C23.2783 16.6654 23.7218 16.3263 23.9087 15.8611L14.7739 11.2915Z" fill="#012169"/>
<path d="M9.2087 11.2915V16.6959H1.24783C0.721743 16.6654 0.273917 16.3263 0.0913086 15.8524L9.2087 11.2915Z" fill="#012169"/>
<path d="M9.2087 5.40435V0H1.3C0.752178 0.00869565 0.278265 0.356522 0.0913086 0.843478L9.2087 5.40435Z" fill="#012169"/>
<path d="M0 5.56512H3.32609L0 3.8999V5.56512Z" fill="#012169"/>
<path d="M24 5.56503H20.6565L24 3.89111V5.56503Z" fill="#012169"/>
<path d="M24 11.1304H20.6565L24 12.8043V11.1304Z" fill="#012169"/>
<path d="M0 11.1304H3.32609L0 12.7956V11.1304Z" fill="#012169"/>
<path d="M24 1.41309L15.7174 5.56526H17.5696L24 2.34787V1.41309Z" fill="#C8102E"/>
<path d="M8.26522 11.1304H6.41304L0 14.3391V15.2738L8.28261 11.1304H8.26522Z" fill="#C8102E"/>
<path d="M4.57391 5.56944H6.42609L0 2.35205V3.28249L4.57391 5.56944Z" fill="#C8102E"/>
<path d="M19.4044 11.126H17.5522L24 14.3564V13.426L19.4044 11.126Z" fill="#C8102E"/>
</g>
<defs>
<clipPath id="clip0_118_166">
<rect width="24" height="16.6957" fill="white"/>
</clipPath>
</defs>
</svg>
